<?xml version="1.0" encoding="UTF-8"?>
<svg version="1.1" xmlns="http://www.w3.org/2000/svg" width="1280" height="853">
<path d="M0 0 C0.73025391 0.07186523 1.46050781 0.14373047 2.21289062 0.21777344 C8.71334859 0.89922241 14.0722352 1.48288227 19 6 C20.33864281 10.01592843 20.13067772 13.87474284 20.11352539 18.0612793 C20.11367142 18.98830658 20.11381744 19.91533386 20.1139679 20.87045288 C20.11327054 23.93839854 20.10548637 27.00628368 20.09765625 30.07421875 C20.09579144 32.1998542 20.09436784 34.32549007 20.09336853 36.4511261 C20.08954829 42.04889103 20.07972219 47.64663007 20.06866455 53.24438477 C20.05843984 58.95523732 20.05386863 64.66609406 20.04882812 70.37695312 C20.03809951 81.5846468 20.02102897 92.79232125 20 104 C21.10611633 103.99111755 22.21223267 103.98223511 23.35186768 103.9730835 C33.76959469 103.89204081 44.18725785 103.83205531 54.60522842 103.79275131 C59.96139908 103.77186546 65.31731551 103.74352936 70.67333984 103.69824219 C75.84101616 103.65482039 81.00844777 103.63087041 86.17629242 103.62049103 C88.14911502 103.61309309 90.12192405 103.59864681 92.09464264 103.57707977 C94.85538303 103.54809457 97.6151088 103.54404195 100.37597656 103.54589844 C101.19381119 103.53151733 102.01164581 103.51713623 102.85426331 103.50231934 C106.4418057 103.52846959 108.55496578 103.66918849 111.47650146 105.84088135 C113.78856007 109.11755589 114.12520445 111.72842764 114.12698364 115.62757874 C114.12980347 116.57858459 114.13262329 117.52959045 114.13552856 118.50941467 C114.13249222 120.07301979 114.13249222 120.07301979 114.12939453 121.66821289 C114.13202301 123.31797623 114.13202301 123.31797623 114.13470459 125.00106812 C114.13912391 128.65827999 114.13618019 132.31544383 114.1328125 135.97265625 C114.13348662 138.52925119 114.13445755 141.08584607 114.13571167 143.6424408 C114.13718964 149.02359683 114.135131 154.40473496 114.13037109 159.78588867 C114.12499185 165.93672056 114.12664378 172.08751897 114.1321975 178.23834997 C114.13736463 184.20714197 114.13671105 190.17591817 114.13381577 196.14471245 C114.13315791 198.65473879 114.13393399 201.16476601 114.13629532 203.67479134 C114.14798919 219.63269351 113.82880804 235.54148577 113.11126328 251.483778 C113.01773049 253.59902449 112.93684392 255.71482483 112.85891724 257.83070374 C111.44660217 293.25353619 97.49107217 328.24069844 76 356 C75.34 356.99 74.68 357.98 74 359 C73.34 359 72.68 359 72 359 C71.7628125 359.55171875 71.525625 360.1034375 71.28125 360.671875 C69.68754857 363.56774711 67.71082727 365.79512037 65.5 368.25 C64.7059375 369.14203125 63.911875 370.0340625 63.09375 370.953125 C61 373 61 373 59 373 C59 373.66 59 374.32 59 375 C56.57531114 377.58282074 53.72939495 379.74865776 51 382 C49.64648438 383.14275391 49.64648438 383.14275391 48.265625 384.30859375 C18.85626091 408.6020478 -15.88370867 425.62079215 -50.52734375 440.98828125 C-53.31606995 442.22988196 -56.07726533 443.5080761 -58.81640625 444.85546875 C-67.87030594 449.27226107 -74.49174314 451.45708771 -84.25 448.125 C-88.54477525 446.36804649 -92.6545496 444.27784939 -96.7734375 442.1484375 C-101.89295507 439.51489964 -107.10832536 437.08551913 -112.3125 434.625 C-122.0239414 430.01010786 -131.55340015 425.13203448 -141 420 C-142.01191406 419.45730469 -143.02382813 418.91460938 -144.06640625 418.35546875 C-160.06471283 409.73049266 -175.88821251 400.59153487 -190.13671875 389.265625 C-193.2588239 386.79520073 -196.46025341 384.45911923 -199.70703125 382.15625 C-200.13371094 381.7746875 -200.56039062 381.393125 -201 381 C-201 380.34 -201 379.68 -201 379 C-201.58265625 378.731875 -202.1653125 378.46375 -202.765625 378.1875 C-205.02786601 376.98519009 -206.80576318 375.66174087 -208.75 374 C-209.36359375 373.484375 -209.9771875 372.96875 -210.609375 372.4375 C-212 371 -212 371 -212 369 C-212.66 369 -213.32 369 -214 369 C-214 368.34 -214 367.68 -214 367 C-214.66 367 -215.32 367 -216 367 C-216 366.34 -216 365.68 -216 365 C-216.66 365 -217.32 365 -218 365 C-219.30932617 363.61401367 -219.30932617 363.61401367 -220.79296875 361.66796875 C-221.33719482 360.95785645 -221.8814209 360.24774414 -222.44213867 359.51611328 C-223.30609253 358.36344971 -223.30609253 358.36344971 -224.1875 357.1875 C-224.77829346 356.40358887 -225.36908691 355.61967773 -225.9777832 354.81201172 C-249.99066627 322.69118315 -261.31607063 286.27538621 -263.140625 246.390625 C-263.17935982 245.60898232 -263.21809464 244.82733963 -263.25800323 244.0220108 C-264.36549192 221.4038856 -264.50683162 198.75340293 -264.68798828 176.11279297 C-264.73789399 169.90433681 -264.80512944 163.69619611 -264.87673569 157.487957 C-264.93044577 152.64434509 -264.97438369 147.80068146 -265.01544952 142.95694733 C-265.03618784 140.66532531 -265.06010263 138.37372955 -265.08739471 136.08217621 C-265.12400306 132.90080482 -265.14718165 129.71960048 -265.16699219 126.53808594 C-265.18039139 125.6145079 -265.19379059 124.69092987 -265.20759583 123.73936462 C-265.22642642 117.79412474 -265.03285636 111.64559128 -263 106 C-259.13637408 103.42424939 -255.96658821 103.73375814 -251.48950195 103.77294922 C-250.62099609 103.77265717 -249.75249023 103.77236511 -248.85766602 103.77206421 C-245.98443644 103.77345853 -243.11146558 103.78902456 -240.23828125 103.8046875 C-238.24716839 103.80841727 -236.2560537 103.81126441 -234.26493835 103.81326294 C-229.02223653 103.82090225 -223.77964538 103.84055334 -218.5369873 103.8626709 C-213.18808489 103.88312288 -207.83916461 103.89226327 -202.49023438 103.90234375 C-191.99344094 103.92379892 -181.49672967 103.9579385 -171 104 C-171.00163651 102.98451584 -171.00327301 101.96903168 -171.00495911 100.92277527 C-171.03604112 79.63735336 -171.04305641 58.35376326 -170.73754883 37.07006836 C-170.70334931 34.50243517 -170.67564969 31.93470932 -170.65356445 29.36694336 C-170.6203004 25.55290167 -170.56823262 21.7395403 -170.51171875 17.92578125 C-170.50532883 16.77821854 -170.4989389 15.63065582 -170.49235535 14.44831848 C-170.47256119 13.39327621 -170.45276703 12.33823395 -170.43237305 11.2512207 C-170.42126999 10.32960648 -170.41016693 9.40799225 -170.39872742 8.45845032 C-169.92186249 5.51822431 -169.03129885 4.15303717 -167 2 C-122.31189055 -17.02687013 -46.92771395 -4.68518405 0 0 Z " fill="#192851" transform="translate(715,182)"/>
<path d="M0 0 C68.01327409 1.67883458 68.01327409 1.67883458 76 9 C77.33864281 13.01592843 77.13067772 16.87474284 77.11352539 21.0612793 C77.11367142 21.98830658 77.11381744 22.91533386 77.1139679 23.87045288 C77.11327054 26.93839854 77.10548637 30.00628368 77.09765625 33.07421875 C77.09579144 35.1998542 77.09436784 37.32549007 77.09336853 39.4511261 C77.08954829 45.04889103 77.07972219 50.64663007 77.06866455 56.24438477 C77.05843984 61.95523732 77.05386863 67.66609406 77.04882812 73.37695312 C77.03809951 84.5846468 77.02102897 95.79232125 77 107 C78.10611633 106.99111755 79.21223267 106.98223511 80.35186768 106.9730835 C90.76959469 106.89204081 101.18725785 106.83205531 111.60522842 106.79275131 C116.96139908 106.77186546 122.31731551 106.74352936 127.67333984 106.69824219 C132.84101616 106.65482039 138.00844777 106.63087041 143.17629242 106.62049103 C145.14911502 106.61309309 147.12192405 106.59864681 149.09464264 106.57707977 C151.85538303 106.54809457 154.6151088 106.54404195 157.37597656 106.54589844 C158.19381119 106.53151733 159.01164581 106.51713623 159.85426331 106.50231934 C163.4418057 106.52846959 165.55496578 106.66918849 168.47650146 108.84088135 C170.79178304 112.12212351 171.12520759 114.73653448 171.12698364 118.64103699 C171.12980347 119.59493317 171.13262329 120.54882935 171.13552856 121.53163147 C171.13249222 123.09994972 171.13249222 123.09994972 171.12939453 124.69995117 C171.13202301 126.35453339 171.13202301 126.35453339 171.13470459 128.0425415 C171.13912316 131.70936638 171.13618086 135.37614333 171.1328125 139.04296875 C171.13348654 141.60435495 171.13445741 144.16574109 171.13571167 146.72712708 C171.13718946 152.11667544 171.13513113 157.50620591 171.13037109 162.89575195 C171.12498628 169.06252864 171.12664809 175.22927196 171.1321975 181.39604777 C171.13735709 187.37552533 171.13671399 193.3549871 171.13381577 199.33446693 C171.13315697 201.85172849 171.13393747 204.36899091 171.13629532 206.88625145 C171.14801786 222.95019366 170.81692783 238.95592344 170 255 C167 254 167 254 165.96484375 252.20703125 C165.62582031 251.41683594 165.28679687 250.62664062 164.9375 249.8125 C153.24519416 225.53113331 131.31667595 208.38123379 108 196 C106.26943359 195.07380859 106.26943359 195.07380859 104.50390625 194.12890625 C91.5566569 187.41712147 78.1789938 183.16307865 64 180 C63.22350098 179.82581543 62.44700195 179.65163086 61.64697266 179.47216797 C52.54318446 177.46266659 43.46346241 175.78510142 34.1875 174.8125 C33.40407227 174.72991943 32.62064453 174.64733887 31.81347656 174.56225586 C28.1399409 174.20529909 24.51977584 173.96424527 20.828125 173.9765625 C14.38869809 173.91190962 9.99577307 173.75922109 5.0625 169.375 C3.85664225 168.12033856 2.6531026 166.86295874 1.47998047 165.57763672 C-1.66569583 162.22439352 -5.04146364 159.10172455 -8.375 155.9375 C-9.06585693 155.25800293 -9.75671387 154.57850586 -10.46850586 153.87841797 C-11.1260083 153.24693848 -11.78351074 152.61545898 -12.4609375 151.96484375 C-13.04665527 151.3937085 -13.63237305 150.82257324 -14.23583984 150.23413086 C-16.18743758 148.61785414 -16.18743758 148.61785414 -20 149 C-22.18170329 150.73249503 -22.18170329 150.73249503 -24.25 153.0625 C-27.66619651 156.64084004 -31.14451362 159.95198283 -34.93115234 163.1315918 C-37.02454612 164.94905976 -37.02454612 164.94905976 -38.76098633 167.01098633 C-43.92500844 172.88394512 -47.98453194 174.30979953 -55.625 175.125 C-57.67701534 175.41456235 -59.72779835 175.71297463 -61.77734375 176.01953125 C-62.81358887 176.17244629 -63.84983398 176.32536133 -64.91748047 176.48291016 C-79.72325194 178.96656484 -94.11948071 184.19221798 -108.17260742 189.33911133 C-109.77287581 189.91785903 -111.38561869 190.4618729 -113 191 C-113 163.28 -113 135.56 -113 107 C-105.08 103.04 -97.16 99.08 -89 95 C-72.04582992 84.74546164 -56.47981246 72.51449163 -42 59 C-41.18789063 58.24203125 -40.37578125 57.4840625 -39.5390625 56.703125 C-32.61405764 50.01841999 -26.7240701 42.71132676 -21 35 C-20.59894043 34.45972168 -20.19788086 33.91944336 -19.78466797 33.36279297 C-12.09042043 22.87885601 -5.78062545 11.62984847 0 0 Z " fill="#CD911D" transform="translate(658,179)"/>
<path d="M0 0 C-2.87998663 30.42368858 -15.43784651 58.02388507 -34 82 C-34.66 82.99 -35.32 83.98 -36 85 C-36.66 85 -37.32 85 -38 85 C-38.35578125 85.82757812 -38.35578125 85.82757812 -38.71875 86.671875 C-40.31245143 89.56774711 -42.28917273 91.79512037 -44.5 94.25 C-45.2940625 95.14203125 -46.088125 96.0340625 -46.90625 96.953125 C-49 99 -49 99 -51 99 C-51 99.66 -51 100.32 -51 101 C-53.42468886 103.58282074 -56.27060505 105.74865776 -59 108 C-59.90234375 108.76183594 -60.8046875 109.52367187 -61.734375 110.30859375 C-91.80522424 135.14846421 -127.46948959 152.49815646 -162.9453125 168.08984375 C-164.84876868 168.9330097 -166.73763762 169.80890027 -168.625 170.6875 C-172.1282483 172.04987434 -175.28556159 172.52797517 -179 173 C-179.05109258 165.40522159 -179.08589701 157.8104882 -179.10986328 150.21557617 C-179.11986423 147.63678328 -179.13346932 145.05800156 -179.15087891 142.47924805 C-179.17538853 138.75306423 -179.18654254 135.02703153 -179.1953125 131.30078125 C-179.20563507 130.1648201 -179.21595764 129.02885895 -179.22659302 127.85847473 C-179.23096123 96.04552523 -166.44352099 68.91775321 -144.4375 46.375 C-143.633125 45.59125 -142.82875 44.8075 -142 44 C-141.28457031 43.18208984 -141.28457031 43.18208984 -140.5546875 42.34765625 C-119.0203952 18.73718779 -82.70280904 6.72967554 -52 2 C-50.86038818 1.82428467 -50.86038818 1.82428467 -49.69775391 1.64501953 C-33.24740112 -0.73432442 -16.57534234 -0.20078219 0 0 Z " fill="#1B2A55" transform="translate(825,456)"/>
<path d="M0 0 C31.63826685 -0.45532765 61.38590666 1.2058335 91.0078125 13.19628906 C92.75634731 13.90170286 94.51791212 14.57463816 96.28125 15.2421875 C128.39333198 27.75899365 154.5454708 52.69925228 169.5 83.54296875 C171.82561345 88.902781 173.48988476 94.3637618 175 100 C175.21398437 100.71542969 175.42796875 101.43085937 175.6484375 102.16796875 C178.47229393 112.09239171 178.14481639 122.75747904 178.09765625 132.984375 C178.09553383 134.75678558 178.09553383 134.75678558 178.09336853 136.56500244 C178.08782617 140.29336208 178.07528481 144.0216589 178.0625 147.75 C178.05747754 150.29687413 178.05291595 152.8437492 178.04882812 155.390625 C178.0378757 161.59377098 178.02119615 167.796881 178 174 C176.56453475 173.53218865 175.12997557 173.06159647 173.69580078 172.58984375 C172.8968338 172.3280835 172.09786682 172.06632324 171.27468872 171.79663086 C168.33397726 170.76674863 165.63570074 169.44161918 162.875 168 C157.62040547 165.29567859 152.31988111 162.71258251 146.97583008 160.18945312 C127.74194231 151.09876956 108.92186969 141.49013868 91 130 C89.89269531 129.29101562 88.78539062 128.58203125 87.64453125 127.8515625 C81.51086468 123.83651038 75.61208842 119.55545946 69.78125 115.11328125 C66.67016133 112.7493782 63.50881461 110.46055677 60.328125 108.19140625 C59.88984375 107.79824219 59.4515625 107.40507813 59 107 C59 106.34 59 105.68 59 105 C58.41734375 104.731875 57.8346875 104.46375 57.234375 104.1875 C54.97213399 102.98519009 53.19423682 101.66174087 51.25 100 C50.63640625 99.484375 50.0228125 98.96875 49.390625 98.4375 C48 97 48 97 48 95 C47.34 95 46.68 95 46 95 C46 94.34 46 93.68 46 93 C45.34 93 44.68 93 44 93 C44 92.34 44 91.68 44 91 C43.34 91 42.68 91 42 91 C40.69067383 89.61401367 40.69067383 89.61401367 39.20703125 87.66796875 C38.39069214 86.60280029 38.39069214 86.60280029 37.55786133 85.51611328 C36.98189209 84.7476709 36.40592285 83.97922852 35.8125 83.1875 C34.92630981 82.0116333 34.92630981 82.0116333 34.0222168 80.81201172 C16.07152614 56.8002737 3.77223674 29.89396211 0 0 Z " fill="#1B2A56" transform="translate(455,456)"/>
<path d="M0 0 C0.66 0 1.32 0 2 0 C3.21679688 1.24023438 3.21679688 1.24023438 4.71875 3.09375 C8.22116442 7.21253134 11.94888539 11.03627747 15.78125 14.84375 C16.40193359 15.46113037 17.02261719 16.07851074 17.66210938 16.71459961 C19.60613689 18.6450308 21.55263034 20.57294063 23.5 22.5 C38.39279056 37.23746471 38.39279056 37.23746471 43.57666016 43.35400391 C46.3410853 46.55087428 49.40545336 49.44550687 52.43164062 52.39257812 C53.63761563 53.57848143 54.82119358 54.78708707 56 56 C56 56.33 56 56.66 56 57 C45.41550651 57.33660933 35.67655173 56.18628353 25 55 C25 88.66 25 122.32 25 157 C28.63 154.03 32.26 151.06 36 148 C38.34145509 146.29243307 40.64537195 144.64565026 43.0625 143.0625 C43.67971924 142.65555908 44.29693848 142.24861816 44.93286133 141.8293457 C56.3307466 134.43792116 68.23117128 127.70008394 81 123 C81.63228516 122.7632959 82.26457031 122.5265918 82.91601562 122.28271484 C96.01535502 117.39984022 109.24662359 113.69004463 122.9375 110.875 C123.69909424 110.71628418 124.46068848 110.55756836 125.24536133 110.39404297 C140.08132245 107.45558644 154.42683926 106.72670271 169.5 106.875 C171.30598454 106.88506391 173.1119746 106.89418365 174.91796875 106.90234375 C179.27878587 106.92405486 183.63932923 106.95839055 188 107 C187.34 110.3 186.68 113.6 186 117 C185.16678223 117.01458252 184.33356445 117.02916504 183.47509766 117.04418945 C147.30901748 117.73991485 147.30901748 117.73991485 112 125 C110.854104 125.3388623 110.854104 125.3388623 109.68505859 125.68457031 C84.99671477 133.02182626 60.7575139 143.71542716 43 163 C42.175 163.804375 41.35 164.60875 40.5 165.4375 C33.08350366 173.03940875 27.24679647 180.72855243 22 190 C21.37867188 191.093125 20.75734375 192.18625 20.1171875 193.3125 C11.06639218 210.23866268 7.62784697 228.9961071 7.8046875 248.08203125 C7.8075174 249.26222336 7.81034729 250.44241547 7.81326294 251.65837097 C7.82433378 255.37652329 7.84941302 259.09442221 7.875 262.8125 C7.88504675 265.3548142 7.89416961 267.89713222 7.90234375 270.43945312 C7.92423 276.62638651 7.95757408 282.81317514 8 289 C9.32 289.33 10.64 289.66 12 290 C7.19782787 292.22322784 4.00551097 293.25276298 -1.2890625 292.58984375 C-2.6186499 292.43116821 -2.6186499 292.43116821 -3.97509766 292.26928711 C-4.64331543 292.18042236 -5.3115332 292.09155762 -6 292 C-6.00808685 291.3464856 -6.01617371 290.69297119 -6.02450562 290.01965332 C-6.11141121 283.13971412 -6.21093779 276.26003509 -6.31738281 269.38037109 C-6.35536826 266.82214776 -6.3902706 264.26387653 -6.421875 261.70556641 C-6.90070112 223.41443981 -13.54398788 192.15563329 -40.8125 163.8125 C-57.03712171 148.20205955 -75.22653652 138.31449676 -96 130 C-97.80404297 129.2575 -97.80404297 129.2575 -99.64453125 128.5 C-126.54831715 118.08982892 -155.56723985 117.77432293 -184 117 C-184.33 113.7 -184.66 110.4 -185 107 C-156.14363748 106.5786446 -129.89681249 108.698122 -102 116 C-100.97084473 116.26651367 -99.94168945 116.53302734 -98.88134766 116.80761719 C-94.14763644 118.06025946 -89.61412738 119.39019294 -85.125 121.375 C-80.91459372 123.20205454 -76.68641161 124.86373355 -72.375 126.4375 C-67.47856077 128.31137426 -63.12950703 130.47528922 -58.7109375 133.28515625 C-56.06971155 134.95590293 -53.3763791 136.51411495 -50.66821289 138.07299805 C-41.51265724 143.3924726 -32.51538214 149.48461786 -25 157 C-24.505 106.51 -24.505 106.51 -24 55 C-39.51043077 56.39672491 -39.51043077 56.39672491 -55 58 C-50.59704082 52.64504965 -45.83786334 47.78487089 -40.87890625 42.94140625 C-38.77633213 40.84464235 -36.82950361 38.66090742 -34.90234375 36.40234375 C-29.42253889 30.0731654 -23.35135208 24.2956675 -17.39746094 18.41796875 C-15.82531512 16.86413733 -14.25558612 15.30792787 -12.6875 13.75 C-12.18726318 13.25371094 -11.68702637 12.75742187 -11.17163086 12.24609375 C-7.68582196 8.75970379 -4.42326108 5.14488669 -1.3046875 1.328125 C-0.65886719 0.67070312 -0.65886719 0.67070312 0 0 Z " fill="#F8F8F8" transform="translate(639,339)"/>
<path d="M0 0 C3.2118807 1.60594035 4.03108576 4.99027682 5.5 8.125 C17.58026861 32.9744835 37.28465986 55.32704805 60 71 C60.96824707 71.67023193 60.96824707 71.67023193 61.95605469 72.35400391 C84.91615181 88.07467503 110.64721087 98.52013836 137.875 104.3125 C138.56158691 104.45953369 139.24817383 104.60656738 139.95556641 104.75805664 C147.60070559 106.27943756 155.22382945 107.02797868 163 108 C163 137.37 163 166.74 163 197 C155 191 155 191 152.33203125 188.8671875 C139.69715904 178.87682343 125.12437364 170.54061213 110 165 C108.91332031 164.57332031 107.82664062 164.14664063 106.70703125 163.70703125 C96.78866545 159.81501429 86.87791654 156.59976262 76.5625 153.9375 C75.58990234 153.68162109 74.61730469 153.42574219 73.61523438 153.16210938 C63.62470793 150.56604071 53.92616694 148.70809246 43.625 147.9375 C42.03848633 147.81290405 42.03848633 147.81290405 40.41992188 147.68579102 C30.54879792 146.95409035 20.66978904 146.5964568 10.77587891 146.34155273 C9.0769751 146.29430054 9.0769751 146.29430054 7.34375 146.24609375 C6.33505859 146.22216553 5.32636719 146.1982373 4.28710938 146.17358398 C2 146 2 146 1 145 C0.44214086 139.7829159 0.22735163 134.5280521 -0.05078125 129.2890625 C-0.09527216 128.46185322 -0.13976307 127.63464394 -0.18560219 126.78236771 C-1.39887065 103.4935614 -1.26410486 80.190134 -1.19561768 56.87701416 C-1.18462357 52.13409038 -1.18515431 47.39119446 -1.18575573 42.64826012 C-1.18548477 38.05702908 -1.18002101 33.46581669 -1.17275429 28.87459183 C-1.16958301 26.69526942 -1.16760383 24.51594492 -1.16686058 22.33662033 C-1.16469989 19.32642682 -1.15597158 16.316326 -1.14526367 13.30615234 C-1.14571686 12.41710709 -1.14617004 11.52806183 -1.14663696 10.61207581 C-1.14237198 9.79483536 -1.13810699 8.97759491 -1.13371277 8.1355896 C-1.13203692 7.42907446 -1.13036108 6.72255932 -1.12863445 5.99463463 C-0.99318505 3.89432592 -0.57081371 2.02196883 0 0 Z " fill="#D0931E" transform="translate(452,300)"/>
<path d="M0 0 C7.44646111 6.10959644 11.96691905 12.90075714 15 22 C16.27492274 40.41322841 16.27492274 40.41322841 11 48 C8.859375 49.2578125 8.859375 49.2578125 7 50 C2.22519424 45.76465547 -2.49998301 41.50175497 -7.0859375 37.0625 C-7.79363281 36.3826001 -8.50132812 35.7027002 -9.23046875 35.00219727 C-10.64974327 33.63575776 -12.06136381 32.26131939 -13.46484375 30.87866211 C-14.12355469 30.24710205 -14.78226563 29.61554199 -15.4609375 28.96484375 C-16.04665527 28.3937085 -16.63237305 27.82257324 -17.23583984 27.23413086 C-19.18743758 25.61785414 -19.18743758 25.61785414 -23 26 C-25.18170329 27.73249503 -25.18170329 27.73249503 -27.25 30.0625 C-30.6962947 33.67236679 -34.21705896 37.00012462 -38.0234375 40.22265625 C-40.90651612 42.8151479 -43.47278555 45.69350117 -46.04296875 48.59375 C-48 50 -48 50 -50.6328125 49.8515625 C-53 49 -53 49 -54.6875 46.875 C-58.75573677 37.96362422 -59.63402176 28.09426998 -57.08984375 18.60546875 C-52.84369212 7.75115832 -46.31725183 1.07438119 -35.87890625 -4.0390625 C-24.4108746 -8.54210612 -10.2187265 -6.78047078 0 0 Z " fill="#F9F9F8" transform="translate(661,302)"/>
<path d="M0 0 C3.63 0.33 7.26 0.66 11 1 C11 30.37 11 59.74 11 90 C8.36 88.02 5.72 86.04 3 84 C1.845 83.2575 0.69 82.515 -0.5 81.75 C-3.26949337 78.70355729 -3.38367372 78.10485678 -3.4375 74.1875 C-3.28337417 71.32449603 -2.93294793 68.54569694 -2.51416016 65.70825195 C-1.73354514 59.45717411 -1.65258194 53.16603016 -1.46484375 46.875 C-1.42175618 45.51878851 -1.37833949 44.16258743 -1.33460999 42.80639648 C-1.22120252 39.26216141 -1.11222427 35.71780391 -1.00421143 32.17340088 C-0.8928857 28.54650451 -0.77731142 24.9197437 -0.66210938 21.29296875 C-0.43728045 14.19543764 -0.21753036 7.09775911 0 0 Z " fill="#B3770B" transform="translate(604,407)"/>
<path d="M0 0 C0.66 0 1.32 0 2 0 C-0.87998663 30.42368858 -13.43784651 58.02388507 -32 82 C-32.66 82.99 -33.32 83.98 -34 85 C-34.66 85 -35.32 85 -36 85 C-36.35578125 85.82757812 -36.35578125 85.82757812 -36.71875 86.671875 C-38.31245143 89.56774711 -40.28917273 91.79512037 -42.5 94.25 C-43.2940625 95.14203125 -44.088125 96.0340625 -44.90625 96.953125 C-47 99 -47 99 -49 99 C-49 99.66 -49 100.32 -49 101 C-51.42468886 103.58282074 -54.27060505 105.74865776 -57 108 C-57.90234375 108.76183594 -58.8046875 109.52367187 -59.734375 110.30859375 C-84.636527 130.87888842 -113.76704165 146.59731079 -143 160 C-144.39702148 160.64291992 -144.39702148 160.64291992 -145.82226562 161.29882812 C-151.52577575 163.91676725 -157.23080982 166.52954614 -163 169 C-163.73750488 169.32484375 -164.47500977 169.6496875 -165.23486328 169.984375 C-167.37890625 170.875 -167.37890625 170.875 -171 172 C-171.99 171.34 -172.98 170.68 -174 170 C-173.25242432 169.6690332 -172.50484863 169.33806641 -171.73461914 168.99707031 C-108.10575098 140.86800033 -108.10575098 140.86800033 -52.65625 99.4453125 C-50 97 -50 97 -47.35546875 94.89453125 C-43.74231348 91.98842793 -40.94082917 88.5701895 -38 85 C-37.23429688 84.071875 -36.46859375 83.14375 -35.6796875 82.1875 C-18.8575741 61.09394087 -6.92617203 36.15537957 -2.640625 9.453125 C-2.02896433 6.15612479 -1.13975087 3.14880324 0 0 Z " fill="#020935" transform="translate(823,456)"/>
<path d="M0 0 C5.61 0 11.22 0 17 0 C17 0.33 17 0.66 17 1 C10.565 1.495 10.565 1.495 4 2 C8.23239855 35.4744249 23.70193668 66.7169779 47 91 C47.43940918 91.4758252 47.87881836 91.95165039 48.33154297 92.44189453 C57.82454318 102.71478223 68.61806525 110.91992773 80 119 C80.66789551 119.47566406 81.33579102 119.95132813 82.02392578 120.44140625 C110.706439 140.67545085 143.21909652 155.37280593 175 170 C175 170.33 175 170.66 175 171 C170.13855474 171.32505949 167.32913131 170.48491686 163.0625 168.1875 C161.82430442 167.53641648 160.58460725 166.88818388 159.34375 166.2421875 C158.65796875 165.88350586 157.9721875 165.52482422 157.265625 165.15527344 C153.86856169 163.423064 150.41847896 161.80805921 146.96923828 160.18286133 C127.7309242 151.1130934 108.91694425 141.48698086 91 130 C89.89269531 129.29101562 88.78539062 128.58203125 87.64453125 127.8515625 C81.51086468 123.83651038 75.61208842 119.55545946 69.78125 115.11328125 C66.67016133 112.7493782 63.50881461 110.46055677 60.328125 108.19140625 C59.88984375 107.79824219 59.4515625 107.40507813 59 107 C59 106.34 59 105.68 59 105 C58.41734375 104.731875 57.8346875 104.46375 57.234375 104.1875 C54.97213399 102.98519009 53.19423682 101.66174087 51.25 100 C50.63640625 99.484375 50.0228125 98.96875 49.390625 98.4375 C48 97 48 97 48 95 C47.34 95 46.68 95 46 95 C46 94.34 46 93.68 46 93 C45.34 93 44.68 93 44 93 C44 92.34 44 91.68 44 91 C43.34 91 42.68 91 42 91 C40.69067383 89.61401367 40.69067383 89.61401367 39.20703125 87.66796875 C38.39069214 86.60280029 38.39069214 86.60280029 37.55786133 85.51611328 C36.98189209 84.7476709 36.40592285 83.97922852 35.8125 83.1875 C34.92630981 82.0116333 34.92630981 82.0116333 34.0222168 80.81201172 C15.86613512 56.52553244 4.29223868 30.04567077 0 0 Z " fill="#010630" transform="translate(455,456)"/>
<path d="M0 0 C10.49192952 -0.09264814 20.98376185 -0.16373867 31.476017 -0.20724869 C36.34792776 -0.22813056 41.21955882 -0.25645914 46.09130859 -0.30175781 C50.79214988 -0.34519419 55.49272201 -0.36913259 60.19374847 -0.37950897 C61.98794544 -0.38690432 63.78212754 -0.40134567 65.57621002 -0.42292023 C68.08791528 -0.45192537 70.59850599 -0.45595729 73.11035156 -0.45410156 C74.22489464 -0.47567322 74.22489464 -0.47567322 75.36195374 -0.49768066 C78.79387695 -0.47021381 80.65899467 -0.25826939 83.43060303 1.84088135 C85.80607235 5.1089647 86.12519918 7.71804297 86.12698364 11.64103699 C86.13121338 13.07188126 86.13121338 13.07188126 86.13552856 14.53163147 C86.13249222 16.09994972 86.13249222 16.09994972 86.12939453 17.69995117 C86.13202301 19.35453339 86.13202301 19.35453339 86.13470459 21.0425415 C86.13912316 24.70936638 86.13618086 28.37614333 86.1328125 32.04296875 C86.13348654 34.60435495 86.13445741 37.16574109 86.13571167 39.72712708 C86.13718946 45.11667544 86.13513113 50.50620591 86.13037109 55.89575195 C86.12498628 62.06252864 86.12664809 68.22927196 86.1321975 74.39604777 C86.13735709 80.37552533 86.13671399 86.3549871 86.13381577 92.33446693 C86.13315697 94.85172849 86.13393747 97.36899091 86.13629532 99.88625145 C86.14801786 115.95019366 85.81692783 131.95592344 85 148 C84.01 147.67 83.02 147.34 82 147 C81.67 145.02 81.34 143.04 81 141 C81.66 141 82.32 141 83 141 C83.02337881 127.25447802 83.0410432 113.50896093 83.05181217 99.76342297 C83.05698598 93.37783788 83.06398097 86.9922666 83.07543945 80.60668945 C83.08646728 74.4209664 83.09231801 68.23525645 83.09487724 62.04952431 C83.09669626 59.71336982 83.10024608 57.37721588 83.10573006 55.04106712 C83.13428732 42.34736583 83.02842576 29.6593897 82.68139648 16.9699707 C82.65929894 15.80114192 82.6372014 14.63231314 82.61443424 13.4280653 C82.57940516 12.35310456 82.54437609 11.27814383 82.50828552 10.17060852 C82.482723 9.21847127 82.45716047 8.26633402 82.43082333 7.28534412 C82.21756578 6.15409878 82.21756578 6.15409878 82 5 C78.36044316 2.57362877 76.60612269 2.73335325 72.26879883 2.69702148 C71.24866196 2.68436249 71.24866196 2.68436249 70.20791626 2.67144775 C67.95761412 2.64564375 65.7074436 2.63351739 63.45703125 2.62109375 C61.88863598 2.60491213 60.32025072 2.58773143 58.75187683 2.56959534 C54.61710273 2.52387117 50.48231486 2.48910317 46.34741211 2.45739746 C39.7472066 2.40559001 33.14715117 2.33993987 26.54712486 2.26918221 C24.24959459 2.2465137 21.95208252 2.23012978 19.65449524 2.21446228 C18.22905286 2.20103768 16.80361226 2.18742137 15.37817383 2.17358398 C14.14367996 2.16407211 12.9091861 2.15456024 11.63728333 2.14476013 C7.69759274 1.9879645 3.90395884 1.53961534 0 1 C0 0.67 0 0.34 0 0 Z " fill="#B87803" transform="translate(743,286)"/>
<path d="M0 0 C0.66 0 1.32 0 2 0 C2 32.01 2 64.02 2 97 C1.34 97 0.68 97 0 97 C0 97.66 0 98.32 0 99 C-1.08106018 99.00808685 -2.16212036 99.01617371 -3.27593994 99.02450562 C-13.4583714 99.10195278 -23.64066901 99.18968852 -33.82292557 99.28752708 C-39.05786737 99.33749674 -44.29278893 99.38382681 -49.52783203 99.421875 C-54.57887801 99.45871922 -59.62975489 99.50507698 -64.68065643 99.55806351 C-66.60875231 99.57661202 -68.53688444 99.59171829 -70.46503448 99.60334396 C-73.16338968 99.6201985 -75.86135718 99.64923172 -78.55957031 99.68115234 C-79.75827003 99.68439262 -79.75827003 99.68439262 -80.98118591 99.68769836 C-86.34868565 99.67825207 -86.34868565 99.67825207 -91 102 C-91.81870185 105.56206661 -91.81870185 105.56206661 -92 109 C-92.66 108.67 -93.32 108.34 -94 108 C-94.48296031 101.72151592 -94.48296031 101.72151592 -92.52337646 98.79400635 C-88.93689851 96.244183 -85.61286354 96.47139547 -81.37597656 96.54589844 C-80.50732468 96.54531433 -79.63867279 96.54473022 -78.74369812 96.54412842 C-75.87559905 96.54691275 -73.00854226 96.57802108 -70.140625 96.609375 C-68.15094572 96.61683615 -66.16125908 96.62252968 -64.17156982 96.62652588 C-58.93694743 96.64179208 -53.7027696 96.68108261 -48.46832275 96.7253418 C-43.12607843 96.7662731 -37.78376221 96.78453233 -32.44140625 96.8046875 C-21.96074227 96.84757573 -11.48040812 96.91583918 -1 97 C-1.00261841 95.98320663 -1.00523682 94.96641327 -1.00793457 93.91880798 C-1.06044692 71.45953676 -0.93975636 49.01811254 -0.5 26.5625 C-0.45149449 23.94596961 -0.40331745 21.32943311 -0.35546875 18.71289062 C-0.24071803 12.47518573 -0.1220964 6.23756524 0 0 Z " fill="#010224" transform="translate(545,189)"/>
<path d="M0 0 C5.18539414 4.59107962 6.73568837 11.16152295 7.359375 17.859375 C7.70728107 28.15739473 6.66986844 38.18549864 1 47 C-6.28842411 37.85292332 -7.01547311 27.36546335 -6.24511719 16.09716797 C-5.54464743 10.10410499 -3.31356106 4.97034159 0 0 Z " fill="#F9F6F0" transform="translate(639,241)"/>
<path d="M0 0 C1.29418156 10.18568817 -2.35476354 19.77046187 -8.12109375 28.04296875 C-12.52982575 33.21577908 -16.69606569 36.47842627 -23 39 C-23.88240161 27.5287791 -19.13247061 16.83926805 -12 8 C-3.36283186 0 -3.36283186 0 0 0 Z " fill="#FAF8F3" transform="translate(682,255)"/>
<path d="M0 0 C11.35652748 -0.7406431 22.39597055 4.12494999 30.8828125 11.5078125 C37.73441901 18.20325704 37.73441901 18.20325704 39 22 C26.70455239 22.76054315 17.62301722 19.72785322 8 12 C4.31674715 8.43505292 1.5088517 4.97921062 0 0 Z " fill="#FAF8F4" transform="translate(565,286)"/>
<path d="M0 0 C-2.5315131 4.78174696 -4.93698868 8.33338003 -9 12 C-10.0828125 12.99 -10.0828125 12.99 -11.1875 14 C-17.73216372 18.65398309 -24.58923326 22.15777373 -32.6875 22.0625 C-33.68136719 22.05347656 -34.67523437 22.04445313 -35.69921875 22.03515625 C-36.83810547 22.01775391 -36.83810547 22.01775391 -38 22 C-34.04921865 12.47164499 -25.93318289 6.6618867 -17 2 C-11.38476229 -0.04354867 -5.92188594 -0.21534131 0 0 Z " fill="#FAF8F3" transform="translate(713,286)"/>
<path d="M0 0 C10.14468048 5.17585739 16.86855912 13.00658511 21.0390625 23.65234375 C22.49612088 28.18011863 23.37893943 32.20010056 23 37 C14.75247455 34.4226483 8.29286755 28.35375833 4 21 C0.60909276 13.97597787 -0.60641672 7.765503 0 0 Z " fill="#F9F7F2" transform="translate(598,257)"/>
<path d="M0 0 C0 0.66 0 1.32 0 2 C-9.94017771 7.60727973 -22.27780161 8.99603023 -33.33984375 6.13671875 C-36.66647876 4.93458389 -39.83837072 3.58081464 -43 2 C-43 1.34 -43 0.68 -43 0 C-41.77493102 -0.65357278 -40.54470484 -1.29748233 -39.3125 -1.9375 C-38.62800781 -2.29714844 -37.94351563 -2.65679687 -37.23828125 -3.02734375 C-25.34947614 -8.19368314 -11.14524328 -5.4272489 0 0 Z " fill="#F8F5EF" transform="translate(597,328)"/>
<path d="M0 0 C0 0.99 0 1.98 0 3 C-11.9739461 8.40001491 -26.70445117 9.24180444 -39.25 5 C-40.84630001 4.36500773 -42.43646181 3.71185478 -44 3 C-44 2.34 -44 1.68 -44 1 C-42.62929219 0.34510627 -41.25316556 -0.29844963 -39.875 -0.9375 C-39.10929688 -1.29714844 -38.34359375 -1.65679687 -37.5546875 -2.02734375 C-26.0874477 -6.3933112 -10.83760282 -5.34718729 0 0 Z " fill="#FBF8F2" transform="translate(725,327)"/>
<path d="M0 0 C2 1 2 1 3.125 4.0625 C3.41375 5.031875 3.7025 6.00125 4 7 C3.01 7 2.02 7 1 7 C1.03029297 8.10061768 1.06058594 9.20123535 1.09179688 10.33520508 C2.09138367 47.0240125 2.09138367 47.0240125 2 60.875 C1.92285665 74.2327521 2.182745 87.5826611 2.4375 100.9375 C2.45723877 102.02778503 2.47697754 103.11807007 2.49731445 104.24139404 C2.75246128 118.17813313 3.20744452 132.08311483 4 146 C3.01 145.67 2.02 145.34 1 145 C-1.01229788 115.61742495 -1.28211257 86.31997813 -1.19561768 56.87701416 C-1.18462357 52.13409038 -1.18515431 47.39119446 -1.18575573 42.64826012 C-1.18548477 38.05702908 -1.18002101 33.46581669 -1.17275429 28.87459183 C-1.16958301 26.69526942 -1.16760383 24.51594492 -1.16686058 22.33662033 C-1.16469989 19.32642682 -1.15597158 16.316326 -1.14526367 13.30615234 C-1.14571686 12.41710709 -1.14617004 11.52806183 -1.14663696 10.61207581 C-1.14237198 9.79483536 -1.13810699 8.97759491 -1.13371277 8.1355896 C-1.13203692 7.42907446 -1.13036108 6.72255932 -1.12863445 5.99463463 C-0.99318505 3.89432592 -0.57081371 2.02196883 0 0 Z " fill="#B06D04" transform="translate(452,300)"/>
<path d="M0 0 C0.88951355 -0.00090637 1.7790271 -0.00181274 2.69549561 -0.00274658 C13.13618377 -0.00153876 23.46974057 0.25358444 33.875 1.1875 C33.875 1.8475 33.875 2.5075 33.875 3.1875 C32.74677826 3.19963028 32.74677826 3.19963028 31.59576416 3.21200562 C24.3640186 3.29128167 17.13243784 3.37891822 9.90089798 3.47502708 C6.18673354 3.52411894 2.4725865 3.57042236 -1.24169922 3.609375 C-16.40996627 3.77054386 -31.53170108 4.0548163 -46.66796875 5.125 C-47.79108459 5.20422699 -48.91420044 5.28345398 -50.0713501 5.36508179 C-57.60847496 5.94987731 -64.93124184 6.99574634 -72.31640625 8.6015625 C-75.125 9.1875 -75.125 9.1875 -78.125 9.1875 C-75.66308823 5.49463235 -74.3306218 5.31167576 -70.125 4.1875 C-47.29265356 -0.15004339 -23.16634933 -0.00153288 0 0 Z " fill="#000127" transform="translate(624.125,177.8125)"/>
<path d="M0 0 C0.99 0.33 1.98 0.66 3 1 C-0.71389509 5.05043891 -5.50481819 7.33426369 -10.25 10 C-11.78297729 10.86286621 -11.78297729 10.86286621 -13.34692383 11.74316406 C-23.99952295 17.66535333 -34.92494651 22.9223237 -46 28 C-46.93134766 28.42861328 -47.86269531 28.85722656 -48.82226562 29.29882812 C-54.52577575 31.91676725 -60.23080982 34.52954614 -66 37 C-67.10625732 37.48726562 -67.10625732 37.48726562 -68.23486328 37.984375 C-70.37890625 38.875 -70.37890625 38.875 -74 40 C-74.99 39.34 -75.98 38.68 -77 38 C-76.25242432 37.6690332 -75.50484863 37.33806641 -74.73461914 36.99707031 C-34.77225353 22.25043909 -34.77225353 22.25043909 0 0 Z " fill="#000327" transform="translate(726,588)"/>
<path d="M0 0 C2.16189853 3.24284779 2.24626755 4.10096221 2.22705078 7.83862305 C2.22689972 8.8194133 2.22674866 9.80020355 2.22659302 10.81071472 C2.21627045 11.86704605 2.20594788 12.92337738 2.1953125 14.01171875 C2.1924826 15.09508011 2.18965271 16.17844147 2.18673706 17.29463196 C2.17553091 20.75903308 2.15042534 24.22317685 2.125 27.6875 C2.11497077 30.03450148 2.10584482 32.381507 2.09765625 34.72851562 C2.07559012 40.48577643 2.04105712 46.24284456 2 52 C7.28 52.33 12.56 52.66 18 53 C18 53.33 18 53.66 18 54 C12.06 54 6.12 54 0 54 C-1.4231097 51.1537806 -1.11265229 48.77208783 -1.09375 45.58984375 C-1.09016479 44.93169174 -1.08657959 44.27353973 -1.08288574 43.59544373 C-1.01489092 34.9153377 -0.7527149 26.23876236 -0.5 17.5625 C-0.45163073 15.8483127 -0.40345259 14.13412 -0.35546875 12.41992188 C-0.23917393 8.27988255 -0.12032245 4.13992415 0 0 Z " fill="#DEA61F" transform="translate(733,234)"/>
<path d="M0 0 C0.33 0 0.66 0 1 0 C1.73933456 3.96269407 2.12280883 7.70096848 2.11352539 11.72998047 C2.11344986 12.83066864 2.11337433 13.93135681 2.11329651 15.06539917 C2.10813522 16.23748932 2.10297394 17.40957947 2.09765625 18.6171875 C2.0962413 19.82948029 2.09482635 21.04177307 2.09336853 22.290802 C2.08778345 26.15222673 2.07523361 30.01359288 2.0625 33.875 C2.05748308 36.49739499 2.0529205 39.1197909 2.04882812 41.7421875 C2.03781889 48.1614808 2.02056444 54.58073048 2 61 C5.3 61 8.6 61 12 61 C12.33 46.15 12.66 31.3 13 16 C13.33 16 13.66 16 14 16 C14.33 30.52 14.66 45.04 15 60 C16.32 60.33 17.64 60.66 19 61 C11.84734189 64.31141579 9.64952911 63.86495291 1 63 C0.67 42.21 0.34 21.42 0 0 Z " fill="#8C94A8" transform="translate(632,568)"/>
<path d="M0 0 C4.26854771 0.11920962 8.53690935 0.24350991 12.80517578 0.37231445 C14.25402915 0.41534491 15.7029229 0.45703893 17.15185547 0.49731445 C31.97156783 0.91095908 31.97156783 0.91095908 39 2 C39 2.66 39 3.32 39 4 C25.62359426 4.12242557 12.34675129 3.92273836 -1 3 C-0.67 2.01 -0.34 1.02 0 0 Z " fill="#BD6D00" transform="translate(658,179)"/>
<path d="M0 0 C28.84532374 1.23021583 28.84532374 1.23021583 36 6 C35.34 6.66 34.68 7.32 34 8 C33.46117187 7.69191406 32.92234375 7.38382813 32.3671875 7.06640625 C21.2512758 2.05874306 5.97246976 3.40005808 -6 3 C-6 2.67 -6 2.34 -6 2 C-4.02 2 -2.04 2 0 2 C0 1.34 0 0.68 0 0 Z " fill="#CA8C01" transform="translate(697,181)"/>
<path d="M0 0 C0.98291016 0.04833984 1.96582031 0.09667969 2.97851562 0.14648438 C4.51475586 0.2305957 4.51475586 0.2305957 6.08203125 0.31640625 C7.11779297 0.36861328 8.15355469 0.42082031 9.22070312 0.47460938 C11.77895174 0.60429018 14.33681063 0.73925603 16.89453125 0.87890625 C16.89453125 1.53890625 16.89453125 2.19890625 16.89453125 2.87890625 C13.47793634 2.93707248 10.0614692 2.9725582 6.64453125 3.00390625 C5.19240234 3.02904297 5.19240234 3.02904297 3.7109375 3.0546875 C2.30908203 3.06435547 2.30908203 3.06435547 0.87890625 3.07421875 C0.02006836 3.08469238 -0.83876953 3.09516602 -1.72363281 3.10595703 C-4.28450471 2.86183948 -5.90057904 2.16881137 -8.10546875 0.87890625 C-5.02085369 -0.14929877 -3.20861636 -0.16692224 0 0 Z " fill="#00001F" transform="translate(641.10546875,178.12109375)"/>
<path d="M0 0 C1.91541138 -0.10841951 3.83259773 -0.18578079 5.75 -0.25 C6.81734375 -0.29640625 7.8846875 -0.3428125 8.984375 -0.390625 C12.67488191 0.08741994 13.74672802 1.10900953 16 4 C16.75 6.25 16.75 6.25 17 8 C16.01 8.33 15.02 8.66 14 9 C13.71125 8.195625 13.4225 7.39125 13.125 6.5625 C12.26737432 3.8673532 12.26737432 3.8673532 10 3 C8.12943209 2.7724985 6.25314042 2.59037189 4.375 2.4375 C3.37210938 2.35371094 2.36921875 2.26992188 1.3359375 2.18359375 C0.56507813 2.12300781 -0.20578125 2.06242187 -1 2 C-0.67 1.34 -0.34 0.68 0 0 Z " fill="#B46E00" transform="translate(812,286)"/>
<path d="M0 0 C2.97 0 5.94 0 9 0 C9.33 0.99 9.66 1.98 10 3 C0.43 3 -9.14 3 -19 3 C-19 2.67 -19 2.34 -19 2 C-12.73 1.67 -6.46 1.34 0 1 C0 0.67 0 0.34 0 0 Z " fill="#030A40" transform="translate(627,178)"/>
<path d="M0 0 C5.61 0 11.22 0 17 0 C17 0.33 17 0.66 17 1 C12.05 1.33 7.1 1.66 2 2 C1.67 3.32 1.34 4.64 1 6 C0.67 4.02 0.34 2.04 0 0 Z " fill="#0B1741" transform="translate(455,456)"/>
<path d="M0 0 C0 0.66 0 1.32 0 2 C-1.26362492 2.55827609 -2.5362919 3.09612097 -3.8125 3.625 C-4.52019531 3.92664063 -5.22789062 4.22828125 -5.95703125 4.5390625 C-6.63121094 4.69117188 -7.30539062 4.84328125 -8 5 C-8.99 4.34 -9.98 3.68 -11 3 C-4.5 0 -4.5 0 0 0 Z " fill="#030B34" transform="translate(660,623)"/>
<path d="M0 0 C0 3 0 3 -1.75 5.04296875 C-2.4925 5.75066406 -3.235 6.45835937 -4 7.1875 C-4.7425 7.90292969 -5.485 8.61835938 -6.25 9.35546875 C-6.8275 9.89816406 -7.405 10.44085938 -8 11 C-8.33 10.01 -8.66 9.02 -9 8 C-6.03 5.36 -3.06 2.72 0 0 Z " fill="#303D63" transform="translate(688,495)"/>
<path d="M0 0 C0.66 0 1.32 0 2 0 C3.13016601 5.02296004 2.77916092 8.97874074 2 14 C1.67 14 1.34 14 1 14 C0.83081732 12.41693353 0.66476064 10.83353281 0.5 9.25 C0.4071875 8.36828125 0.314375 7.4865625 0.21875 6.578125 C0 4 0 4 0 0 Z " fill="#D69811" transform="translate(732,188)"/>
<path d="M0 0 C4.55737263 0.43820891 7.57653445 0.85041169 11 4 C6.35108046 4.32434322 3.77593392 3.776422 0 1 C0 0.67 0 0.34 0 0 Z " fill="#0A113F" transform="translate(619,623)"/>
<path d="M0 0 C0.66 0.99 1.32 1.98 2 3 C1.125 5.6875 1.125 5.6875 0 8 C-0.66 8 -1.32 8 -2 8 C-2.33 8.66 -2.66 9.32 -3 10 C-2.39009109 6.44219804 -1.4216319 3.3171411 0 0 Z " fill="#000330" transform="translate(816,486)"/>
<path d="M0 0 C0.66 0.33 1.32 0.66 2 1 C-0.31 3.31 -2.62 5.62 -5 8 C-5.33 7.34 -5.66 6.68 -6 6 C-2.25 1.125 -2.25 1.125 0 0 Z " fill="#F6EFDF" transform="translate(675,259)"/>
<path d="M0 0 C0.99 0.33 1.98 0.66 3 1 C1.35 2.98 -0.3 4.96 -2 7 C-2.66 6.34 -3.32 5.68 -4 5 C-2.68 3.35 -1.36 1.7 0 0 Z " fill="#000327" transform="translate(779,547)"/>
<path d="M0 0 C0.66 0 1.32 0 2 0 C4 2 4 2 4.125 4.625 C4.08375 5.40875 4.0425 6.1925 4 7 C3.01 6.67 2.02 6.34 1 6 C0.67 4.02 0.34 2.04 0 0 Z " fill="#B07C09" transform="translate(824,427)"/>
<path d="M0 0 C0 0.66 0 1.32 0 2 C-3.465 3.485 -3.465 3.485 -7 5 C-7 4.01 -7 3.02 -7 2 C-4.35261084 0.5393715 -3.10551666 0 0 0 Z " fill="#00001A" transform="translate(554,183)"/>
<path d="" fill="#0000FF" transform="translate(0,0)"/>
</svg>
